<?xml version="1.0" encoding="utf-8"?>
<!-- Generator: Adobe Illustrator 19.0.0, SVG Export Plug-In . SVG Version: 6.00 Build 0)  -->
<svg version="1.1" id="图层_1" xmlns="http://www.w3.org/2000/svg" xmlns:xlink="http://www.w3.org/1999/xlink" x="0px" y="0px"
	 viewBox="105.2490005 331.7544861 268.2756348 93.3325195"
	 style="enable-background:new 105.2490005 331.7544861 268.2756348 93.3325195;" xml:space="preserve">
<style type="text/css">
	.st0{fill:#0066FF;}
</style>
<g>
	<g>
		<g>
			<g>
				<g>
					<path class="st0" d="M138.7021332,359.8312683c-1.9694824,5.2933044-7.0658264,9.0674438-13.0466614,9.0674438
						c-7.6823196,0-13.9113693-6.2303467-13.9126663-13.9113464v-2.9694824
						c0.001297-7.6826477,6.2290497-13.9126892,13.9126663-13.9126892c5.9727173,0,11.0648499,3.7640991,13.0375824,9.048645
						h6.6349487c-2.1784515-8.8416138-10.1563416-15.399353-19.6702576-15.399353
						c-11.1900864,0-20.2588348,9.0710144-20.2588348,20.2624207v3.0210571l0,0
						c0.0269241,11.166748,9.086586,20.2108459,20.2588348,20.2108459c9.5197601,0,17.5018768-6.5681152,19.6748047-15.4172058
						h-6.6304016L138.7021332,359.8312683L138.7021332,359.8312683z"/>
					<g>
						<g>
							<path class="st0" d="M253.0955658,381.5927124c-11.190094,0-20.2624054,9.0732727-20.2624054,20.2623901v3.0223694h0.001297
								c0.0291901,11.1654358,9.0888519,20.2095337,20.2611084,20.2095337c11.1900787,0,20.2624054-9.0710144,20.2624054-20.2633972
								v-2.9685059C273.3579712,390.6659851,264.2859802,381.5927124,253.0955658,381.5927124z M267.0092163,404.8233032h-0.0022888
								c0,7.6858826-6.230011,13.9136353-13.912674,13.9136353c-7.6845856,0-13.9126587-6.2277527-13.91362-13.9136353v-2.9662476
								c0.001297-7.6836243,6.2290497-13.9126587,13.91362-13.9126587c7.6823273,0,13.912674,6.2290344,13.912674,13.9126587
								h0.0022888V404.8233032z"/>
							<g>
								<rect x="203.0548859" y="331.7567444" class="st0" width="6.3465009" height="43.4897614"/>
							</g>
							<polygon class="st0" points="209.7479248,381.5939941 202.7077179,381.5939941 185.9670258,425.0870056 
								212.8731537,425.0870056 210.4296112,418.7391968 195.2236481,418.7391968 206.2268372,390.1523743 219.676178,425.0870056 
								226.4869843,425.0870056 							"/>
							<g>
								<rect x="169.3486633" y="368.8974304" class="st0" width="6.3474712" height="43.4930038"/>
								<g>
									<polygon class="st0" points="176.0433197,418.7391968 169.0031128,418.7391968 166.5582733,425.0870056 
										178.4868469,425.0870056 									"/>
								</g>
								<g>
									<polygon class="st0" points="152.2630768,362.5522156 179.1695251,362.5522156 176.7266388,356.2011719 
										161.5187225,356.2011719 170.9307556,331.7567444 164.1144257,331.7567444 									"/>
									<polygon class="st0" points="174.118927,331.7567444 185.9712524,362.5522156 192.7833557,362.5522156 
										180.9316864,331.7567444 									"/>
								</g>
							</g>
							<polygon class="st0" points="139.5726776,381.594635 139.5726776,415.1334534 111.7664948,381.594635 
								105.3989029,381.594635 105.3989029,425.0870056 111.7418365,425.0870056 111.7418365,391.5108948 139.5726776,425.0870056 
								145.9165802,425.0870056 145.9165802,381.594635 							"/>
						</g>
					</g>
				</g>
				<g>
					<path class="st0" d="M105.2490005,425.0331421"/>
				</g>
			</g>
		</g>
		<g>
			<path class="st0" d="M344.8291321,388.3450928h20.1111755v10.6933289l4.3458557-1.684906v-13.3555603h-12.2341919v-2.4055786
				h-4.3478088v2.4055786h-7.875061h-4.35495v4.3471375v16.6157837c0,1.2005005,0.9733887,2.1784363,2.1706543,2.1784363h26.5404358
				v17.9473572l4.339386-1.6817017v-16.2653503v-2.1784363v-2.1729431h-28.6955261L344.8291321,388.3450928L344.8291321,388.3450928
				z"/>
			<rect x="295.3555908" y="392.6315918" class="st0" width="33.9924011" height="4.3494301"/>
			<polygon class="st0" points="298.0677795,390.7659302 302.4204712,390.7659302 302.4204712,388.3450928 322.2899475,388.3450928 
				322.2899475,390.7659302 326.6403503,390.7659302 326.6403503,388.3450928 330.9927063,388.3450928 330.9927063,383.9985962 
				326.6403503,383.9985962 326.6403503,381.5959473 322.2899475,381.5959473 322.2899475,383.9985962 302.4204712,383.9985962 
				302.4204712,381.5959473 298.0677795,381.5959473 298.0677795,383.9985962 293.7154541,383.9985962 293.7154541,388.3450928 
				298.0677795,388.3450928 			"/>
			<rect x="298.0677795" y="398.8460388" class="st0" width="4.3526678" height="6.5019202"/>
			<rect x="322.2899475" y="398.8460388" class="st0" width="4.3500733" height="6.5019202"/>
			<rect x="310.1832581" y="398.8460388" class="st0" width="4.3435979" height="6.572649"/>
			<polygon class="st0" points="337.3775024,420.4906616 364.8799744,420.4906616 364.8799744,416.0899658 339.0646973,416.0899658 
							"/>
			<polygon class="st0" points="329.3278809,408.8904419 314.526825,408.8904419 314.526825,407.100708 310.1787109,407.100708 
				310.1787109,408.8904419 295.3491211,408.8904419 293.6752319,413.2398682 299.2426758,413.2398682 294.6800842,425.0870056 
				299.3432617,425.0870056 303.9019775,413.2398682 310.1787109,413.2398682 310.1787109,425.0870056 314.526825,425.0870056 
				314.526825,413.2398682 320.7033386,413.2398682 325.3558044,425.0870056 330.0283813,425.0870056 325.3759155,413.2398682 
				331.0310059,413.2398682 			"/>
			<rect x="352.7041626" y="390.8249817" class="st0" width="4.347816" height="8.0213861"/>
		</g>
	</g>
</g>
</svg>
