<svg version="1.1" xmlns="http://www.w3.org/2000/svg" fill-rule="evenodd" clip-rule="evenodd" height="1024" width="1024" viewBox="0 0 1024 1024"><path d="M106.557315 843.089575h23.946717v-66.059908h90.006624V655.644586h-90.832373v-42.93894h-23.946717v42.93894H17.376439v121.385081h89.180876v66.059908zM129.678283 677.114056h66.885657v78.446141h-66.885657V677.114056zM40.497407 755.560197V677.114056h66.059908v78.446141h-66.059908zM275.01008 836.483584h205.611464V620.137386H275.01008v216.346198z m21.46947-195.702477h161.021026v175.058756H296.47955V640.781107z" fill="#0080CB"></path><path d="M387.311924 729.136234h49.544931v-20.643722h-49.544931v-29.726958h53.673675v-19.817973H311.34303v19.817973h54.499424v29.726958h-49.544931v20.643722h49.544931V776.203918h-57.80242v20.643721h137.074309V776.203918h-57.802419z" fill="#0080CB"></path><path d="M418.69038 774.55242l17.340726-14.03773c-9.083237-10.734735-26.423963-29.726959-26.423963-29.726959l-16.514977 12.386233c14.863479 15.689228 25.598214 31.378456 25.598214 31.378456zM615.218606 642.432604l-4.128744-21.46947c-18.992224 6.605991-83.400634 13.211982-83.400634 13.211982l3.302996 21.46947 29.726958-4.954493v32.204205h-36.332949v20.643721h33.855703c-2.477247 8.257488-14.03773 42.93894-37.984448 75.968894l16.514977 18.166475s14.03773-21.46947 23.946717-43.764689v90.832373h22.295219V741.522466l22.295219 22.295219 14.863479-17.340726-37.984447-32.204205v-10.734735h32.204205v-20.643721h-32.204205v-33.029954c14.863479-3.302995 33.029954-7.43174 33.029954-7.43174z" fill="#0080CB"></path><path d="M694.490496 729.136234c1.651498-3.302995 3.302995-7.43174 4.954493-10.734735l-21.46947-3.302996c3.302995-1.651498 6.605991-3.302995 9.083237-5.780242 42.93894-28.075461 56.976671-58.628168 56.976671-58.628168v-18.992224h-73.491648c3.302995-4.954493 5.780242-9.083237 8.257488-14.03773l-21.46947-8.257488s-17.340726 37.158698-51.196428 63.582661l18.166474 14.03773s16.514977-14.863479 32.204206-34.681451h62.756912c-8.257488 13.211982-20.643721 24.772465-33.855703 33.855702l-28.075461-23.120967-14.863479 14.863479 23.120968 19.817972c-28.075461 15.689228-55.325173 22.295219-55.325173 22.295219l14.03773 18.166475c19.817972-7.43174 35.507201-14.03773 48.719183-20.643721-3.302995 5.780242-12.386233 19.817972-28.90121 34.681451-9.908986 9.083237-23.120968 18.992224-38.810196 27.249712l16.514977 16.514977s33.029954-17.340726 57.802419-46.241935H726.694701c-4.954493 22.295219-18.992224 37.984447-36.33295 49.544931l-25.598214-24.772466-15.689228 13.211982s14.03773 13.211982 21.46947 21.46947c-33.855703 14.03773-70.188652 14.863479-70.188652 14.863479l9.908986 18.992224c46.241936-3.302995 76.794643-15.689228 98.264113-32.204205 36.332949-27.249712 44.590438-61.105415 44.590438-61.105415v-19.817973l-58.628168-0.825748zM793.580357 633.349367h97.438365v21.46947H793.580357zM781.194125 805.105128l5.780242 17.340726s58.628168-17.340726 80.923387-19.817973c3.302995 4.128744 4.128744 5.780242 4.128744 5.780242l22.295219-8.257488c-4.954493-11.560484-27.249712-60.279666-27.249712-60.279666l-20.643721 9.083237c5.780242 11.560484 11.560484 25.598214 15.689228 36.332949-9.908986 2.477247-37.158698 8.257488-50.37068 13.211982 0 0 6.605991-10.734735 18.166475-42.93894 9.908986-26.423963 11.560484-34.681452 14.863479-39.635945h52.847926V693.629033h-115.604838v21.46947h37.158698c-1.651498 6.605991-8.257488 31.378456-18.166475 54.499424-5.780242 13.211982-11.560484 26.423963-19.817972 35.507201z" fill="#0080CB"></path><path d="M943.866648 716.750001l0.825749-35.507201h38.810196l-4.954493 117.256337c0 14.863479-14.03773 14.03773-14.037731 14.03773h-27.249712l4.128744 23.120968h25.598215c33.029954 0 34.681452-33.855703 34.681451-33.855703l4.954494-142.854551h-61.105415l0.825749-47.067684h-24.772466v47.893433H891.844471v21.46947h30.552707c0 16.514977 0 33.855703-1.651498 45.416187-2.477247 27.249712-6.605991 37.984447-6.605991 37.984447-11.560484 44.590438-47.067684 64.40841-47.067684 64.40841l17.340726 16.514977c62.756913-39.635945 59.453917-128.81682 59.453917-128.81682zM254.366359 929.793204H272.532834v91.658122h-18.166475zM254.366359 892.634506H272.532834v20.643721h-18.166475zM854.685772 929.793204h18.166475v91.658122h-18.166475zM893.495968 882.72552h18.166475v138.725806h-18.166475zM854.685772 892.634506h18.166475v20.643721h-18.166475zM213.904666 928.141706s-21.46947-5.780242-36.33295 10.734735v-56.150921h-18.166475v138.725806h18.166475v-62.756912c3.302995-5.780242 12.386233-18.166475 29.726959-14.86348 0 0 9.908986 1.651498 9.908986 17.340726v60.279666h18.992223v-59.453917s1.651498-27.249712-22.295218-33.855703zM346.024481 928.141706s-22.295219-5.780242-37.158698 11.560484l-2.477246-10.734735h-14.037731v92.483871h17.340726v-61.931163c3.302995-5.780242 13.211982-18.166475 29.726959-15.689229 0 0 9.908986 1.651498 9.908986 17.340726v60.279666h18.992223v-59.453917s2.477247-27.249712-22.295219-33.855703zM434.379608 929.793204c-22.295219-8.257488-45.416187 2.477247-45.416186 2.477246v16.514977s48.719182-21.46947 48.719182 16.514977v0.825749s-26.423963-8.257488-41.287443 0.825749c0 0-23.120968 12.386233-12.386233 37.984447 0 0 8.257488 18.992224 28.90121 18.166475 7.43174 0 15.689228-3.302995 25.598214-9.908986l1.651498 7.431739h15.689228v-58.628168c0 0.825749 1.651498-23.946717-21.46947-32.204205z m-22.295219 77.620392s-14.863479-0.825749-13.211981-15.689228c2.477247-15.689228 21.46947-14.03773 37.158698-9.083238v15.689228h0.825749s-8.257488 9.083237-24.772466 9.083238zM573.931164 987.595623l-39.635945-94.135368h-24.772466v127.991071h18.166475v-97.438364l41.287443 97.438364H578.059908l41.287442-96.612615v96.612615h18.992224v-127.991071h-24.772466zM698.61924 927.315957c-26.423963 0-47.893433 21.46947-47.893433 47.893434 0 26.423963 21.46947 47.893433 47.893433 47.893433 26.423963 0 47.893433-21.46947 47.893433-47.893433 0.825749-26.423963-21.46947-47.893433-47.893433-47.893434z m0 79.27189c-17.340726 0-32.204205-14.03773-32.204205-32.204205 0-17.340726 14.03773-32.204205 32.204205-32.204205 17.340726 0 32.204205 14.03773 32.204205 32.204205s-14.03773 32.204205-32.204205 32.204205zM817.527074 931.444702c-23.120968-11.560484-39.635945 4.954493-39.635945 4.954493V883.551268h-18.992223v137.900058h14.03773l2.477247-8.257488c8.257488 9.908986 23.120968 10.734735 23.120968 10.734735 12.386233 0 22.295219-5.780242 28.901209-13.211982 7.43174-8.257488 12.386233-21.46947 12.386233-26.423963 2.477247-14.03773 2.477247-41.287442-22.295219-52.847926z m-17.340726 75.968894c-16.514977 0-22.295219-10.734735-22.295219-10.734735v-44.590438s8.257488-9.083237 22.295219-9.083237c14.03773 0 19.817972 10.734735 22.295219 26.423963 0.825749 16.514977-3.302995 37.984447-22.295219 37.984447zM966.987616 927.315957c-10.734735 0-19.817972 4.128744-26.423963 9.908987-9.908986 8.257488-13.211982 21.46947-13.211982 21.46947-8.257488 32.204205 6.605991 49.544931 6.605991 49.544931 7.43174 9.908986 21.46947 14.863479 33.029954 15.689228 19.817972 0.825749 33.855703-5.780242 33.855703-5.780242v-15.689228c-57.802419 19.817972-57.802419-21.46947-57.80242-21.46947h61.931164c0.825749-19.817972-3.302995-32.204205-9.083238-40.461694-10.734735-14.03773-28.90121-13.211982-28.901209-13.211982z m-22.295219 37.158699s4.128744-21.46947 22.295219-21.46947 18.992224 21.46947 18.992223 21.46947h-41.287442zM82.610599 908.323734c18.166475 0 33.855703 9.908986 42.113191 24.772465h19.817972c-9.908986-24.772465-33.855703-42.113191-61.931163-42.113191-36.332949 0-66.059908 29.726959-66.059908 66.059908s29.726959 66.059908 66.059908 66.059908c28.075461 0 52.847926-18.166475 61.931163-42.93894h-18.992223c-8.257488 14.863479-23.946717 25.598214-42.93894 25.598214-27.249712 0-48.719182-21.46947-48.719183-48.719182 0-27.249712 21.46947-48.719182 48.719183-48.719182z" fill="#0080CB"></path><path d="M401.349654 318.739056c33.855703 29.726959 56.976671 18.992224 71.84015 8.257488 14.863479-10.734735 105.695853-92.483871 124.688076-110.650346 18.992224-17.340726 41.287442-0.825749 41.287443-0.825748 56.976671 47.067684 106.521602 110.650346 106.521601 110.650345s4.128744-10.734735 6.605991-14.863479c1.651498-3.302995-0.825749-5.780242-0.825749-5.780242-45.416187-61.105415-127.991072-133.771314-127.991071-133.771313-38.810196-34.681452-74.317396 0-74.317397 0S455.849078 255.982143 433.553859 276.625864s-43.764689 2.477247-43.764689 2.477247c-56.150922-44.590438-106.521602-110.650346-106.521601-110.650346s-4.128744 9.908986-6.605991 14.863479c-1.651498 4.128744 0.825749 6.605991 0.825749 6.605991 27.249712 41.287442 95.786866 105.695853 123.862327 128.816821z" fill="#9CC715"></path><path d="M332.8125 179.1875c6.605991-5.780242 95.786866-91.658122 129.642569-115.604839 19.817972-14.03773 40.461694-23.120968 63.582661-23.946716 17.340726-0.825749 36.332949 0.825749 56.150922 9.908986 21.46947 9.908986 54.499424 36.332949 85.87788 68.537154 22.295219 22.295219 43.764689 47.893433 61.931164 71.84015 12.386233 16.514977 23.946717 33.029954 33.029954 47.067685 0 0 0-19.817972-9.083237-37.158699 0 0-36.332949-69.362903-107.347351-133.771313-6.605991-6.605991-67.711406-66.059908-126.339574-65.234159 0 0-54.499424-3.302995-104.870103 37.984447-7.43174 5.780242-94.961118 80.097638-122.21083 109.824597l28.90121 31.378456s3.302995 4.954493 10.734735-0.825749z" fill="#0080CB"></path><path d="M636.688076 117.256337S602.832373 81.749136 559.893433 72.665899c0 0-35.507201-8.257488-69.362903 18.166474-16.514977 13.211982-52.847926 46.241936-82.574885 75.143146-30.552707 26.423963-52.022177 49.544931-52.022177 49.544931l33.029954 31.378456s7.43174 5.780242 16.514976-2.477247c0 0 31.378456-30.552707 58.628169-55.325173 25.598214-23.120968 51.196429-47.067684 60.279666-53.673675 0 0 41.287442-42.113191 94.135369-0.825749 0 0 71.84015 55.325173 142.028802 151.11204l2.477246-11.560484s2.477247-9.083237-3.302995-18.166475c0 0-55.325173-80.923387-123.036579-138.725806zM612.74136 456.639113C619.34735 450.858872 706.876728 375.715726 734.952189 346.814517l-28.901209-31.378457s-3.302995-4.954493-10.734736 0.825749c-6.605991 5.780242-95.786866 91.658122-129.642569 115.604839-19.817972 14.03773-40.461694 23.120968-63.582661 23.946717-17.340726 0.825749-36.332949-0.825749-56.150922-9.908987-21.46947-9.908986-54.499424-36.332949-85.87788-68.537154-22.295219-22.295219-43.764689-47.893433-61.931164-71.84015-12.386233-16.514977-23.946717-33.029954-33.029954-47.067684 0 0 0 19.817972 9.083237 37.158698 0 0 36.332949 69.362903 107.347351 133.771313 6.605991 6.605991 67.711406 66.059908 126.339574 65.23416 0 0 54.499424 3.302995 104.870104-37.984448z" fill="#0080CB"></path><path d="M391.440668 378.192973s33.855703 35.507201 76.794643 44.590438c0 0 35.507201 8.257488 69.362903-18.166475 16.514977-13.211982 52.847926-46.241936 82.574885-75.143145 29.726959-26.423963 52.022177-49.544931 52.022178-49.544931l-33.029954-31.378456s-7.43174-5.780242-16.514977 2.477246c0 0-31.378456 30.552707-58.628169 55.325173-25.598214 23.120968-51.196429 47.067684-60.279665 53.673675 0 0-41.287442 42.113191-94.135369 0.825749 0 0-71.84015-55.325173-142.028802-151.112039l-2.477247 11.560484s-2.477247 9.083237 3.302996 18.166474c0 0 55.325173 80.923387 123.036578 138.725807z" fill="#0080CB"></path></svg>