<?xml version="1.0" standalone="no"?>
<!DOCTYPE svg PUBLIC "-//W3C//DTD SVG 1.1//EN"
  "http://www.w3.org/Graphics/SVG/1.1/DTD/svg11.dtd">
<svg version="1.1" xmlns="http://www.w3.org/2000/svg" xmlns:xlink="http://www.w3.org/1999/xlink" width="2560" height="1440" viewBox="-1040.8888888888887 -32 1889.7777777777776 1063" id="ccdiagram"><filter id="grayscale"><feColorMatrix type="matrix" values="0.3333 0.3333 0.3333 0 0 0.3333 0.3333 0.3333 0 0 0.3333 0.3333 0.3333 0 0 0 0 0 1 0"></feColorMatrix></filter><defs><style type="text/css">@import url('https://fonts.googleapis.com/css?family=Open+Sans:400,700|Inconsolata:400');</style></defs><g><rect x="-1040.8888888888887" y="-32" width="1889.7777777777776" height="1063" fill="none" id="interactionLayer"></rect><g pointer-events="auto"><g opacity="1"><g><g><polygon points="-352 359, 160 655, 160 692, -32 803, -96 803, -608 507, -608 470, -416 359" fill="#000000" opacity="0.3"></polygon><polygon points="-352 352, 160 648, 160 685, -32 796, -96 796, -608 500, -608 463, -416 352" fill="#454d66" stroke-width="0" stroke="rgba(0, 0, 0, 0)"></polygon><polygon points="-384 370, 128 666, -64 777, -576 481" fill="rgba(0, 0, 0, 0)"></polygon></g></g></g><g opacity="1"><g><g><polygon points="160 63, 672 359, 672 396, 240 646, 176 646, -336 350, -336 313, 96 63" fill="#000000" opacity="0.3"></polygon><polygon points="160 56, 672 352, 672 389, 240 638, 176 638, -336 342, -336 305, 96 56" fill="#e3f6f5" stroke-width="0" stroke="rgba(0, 0, 0, 0)"></polygon><polygon points="128 74, 640 370, 208 620, -304 324" fill="rgba(0, 0, 0, 0)"></polygon></g></g></g></g><g pointer-events="auto"></g><g pointer-events="auto"></g><g></g><g pointer-events="auto"></g><g></g><g pointer-events="auto"></g><g pointer-events="auto"></g><g pointer-events="none"></g><g pointer-events="auto"><g id="cc29bbe8-b7ec-48d2-81f3-243d14b9f96b-3436d625-9ed0-4f67-a513-5e70f8cdbfe9"><g cursor="cell"><line x1="-48" y1="490" x2="64" y2="555" stroke="red" stroke-width="8" opacity="0"></line><line x1="-48" y1="490" x2="64" y2="555" stroke="#000000" stroke-width="2" stroke-dasharray="8,6" stroke-linecap="butt"></line></g></g><g id="7e3f1528-1e24-422d-99fc-14ef9097af53-aa54ff55-1d99-4d21-aad3-22737d28d01c"><g cursor="cell"><line x1="-128" y1="629" x2="-182" y2="598" stroke="red" stroke-width="8" opacity="0"></line><line x1="-128" y1="629" x2="-182" y2="598" stroke="#000000" stroke-width="2" stroke-linecap="round"></line><polygon points="-192 592, -183 607, -180 599, -166 597, -192 592" stroke-linejoin="round" fill="#000000" stroke="#000000" stroke-width="1"></polygon></g></g><g id="81143ea8-eced-4afb-9b2c-c741b1a69911-97b894a9-05b2-446c-b2ef-75dd9af3d78e"><g cursor="cell"><line x1="256" y1="444" x2="224" y2="352" stroke="red" stroke-width="8" opacity="0"></line><line x1="256" y1="444" x2="224" y2="352" stroke="#000000" stroke-width="2" stroke-linecap="round"></line></g></g><g id="7ceeb8b6-2574-4b3c-9570-b6067e3c5b43-aa54ff55-1d99-4d21-aad3-22737d28d01c"><g cursor="cell"><line x1="-352" y1="500" x2="-298" y2="531" stroke="red" stroke-width="8" opacity="0"></line><line x1="-352" y1="500" x2="-298" y2="531" stroke="#000000" stroke-width="2" stroke-linecap="round"></line><polygon points="-288 537, -297 522, -300 529, -314 531, -288 537" stroke-linejoin="round" fill="#000000" stroke="#000000" stroke-width="1"></polygon></g></g><g id="6006a8ee-538c-422a-a3ef-c7eb28716cb3-edd78e0a-2c04-40b8-929d-3b56882a4539"><g cursor="cell"><line x1="256" y1="555" x2="294" y2="533" stroke="red" stroke-width="8" opacity="0"></line><line x1="256" y1="555" x2="294" y2="533" stroke="#000000" stroke-width="2" stroke-dasharray="8,6" stroke-linecap="butt"></line><polygon points="304 527, 278 533, 292 534, 295 542, 304 527" stroke-linejoin="round" fill="#000000" stroke="#000000" stroke-width="1"></polygon></g></g><g id="ead04d1f-3b96-4873-afe6-8d845ef21caf-cc29bbe8-b7ec-48d2-81f3-243d14b9f96b"><g cursor="cell"><line x1="-176" y1="564" x2="-48" y2="490" stroke="red" stroke-width="8" opacity="0"></line><line x1="-176" y1="564" x2="-48" y2="490" stroke="#000000" stroke-width="2" stroke-dasharray="8,6" stroke-linecap="butt"></line></g></g><g id="117c6592-25ad-4c3c-99b2-730bd1121481-f2b099c7-8e95-4103-992c-34d82763f06c"><g cursor="cell"><line x1="-208" y1="546" x2="-80" y2="472" stroke="red" stroke-width="8" opacity="0"></line><line x1="-208" y1="546" x2="-80" y2="472" stroke="#000000" stroke-width="2" stroke-linecap="round"></line></g></g><g id="1cec9660-6541-4608-bd49-b29c53a9213a-81143ea8-eced-4afb-9b2c-c741b1a69911"><g cursor="cell"><line x1="-32" y1="389" x2="54" y2="438" stroke="red" stroke-width="8" opacity="0"></line><line x1="-32" y1="389" x2="54" y2="438" stroke="#000000" stroke-width="2" stroke-linecap="round"></line><polygon points="64 444, 55 429, 52 437, 38 439, 64 444" stroke-linejoin="round" fill="#000000" stroke="#000000" stroke-width="1"></polygon></g></g><g id="fafca515-8e57-4d29-bcab-f27a97f844ed-cd61bed1-068e-4dc5-8580-1883a735c3e1"><g cursor="cell"><line x1="-112" y1="139" x2="-624" y2="435" stroke="red" stroke-width="8" opacity="0"></line><line x1="-112" y1="139" x2="-624" y2="435" stroke="#000000" stroke-width="2" stroke-linecap="round"></line></g></g><g id="1d789f22-5dff-482b-99e3-0be91fa1cdfd-f1e0c4a0-cb1d-474f-9273-5596e21e3bc6"><g cursor="cell"><line x1="-544" y1="611" x2="-318" y2="602" stroke="red" stroke-width="8" opacity="0"></line><line x1="-544" y1="611" x2="-318" y2="602" stroke="#000000" stroke-width="2" stroke-dasharray="8,6" stroke-linecap="butt"></line><polygon points="-304 601, -329 596, -322 602, -328 609, -304 601" stroke-linejoin="round" fill="#000000" stroke="#000000" stroke-width="1"></polygon></g></g><g id="8581798e-16a5-4f0d-8f32-39a573dde414-759aaf9b-c0f2-4ec7-b8ce-286bfd91f5a3"><g cursor="cell"><line x1="-624" y1="527" x2="-400" y2="657" stroke="red" stroke-width="8" opacity="0"></line><line x1="-624" y1="527" x2="-400" y2="657" stroke="#000000" stroke-width="2" stroke-linecap="round"></line></g></g><g id="3436d625-9ed0-4f67-a513-5e70f8cdbfe9-56d071ab-a9c9-40b6-a42c-f7b36e892cf5"><g cursor="cell"><line x1="64" y1="555" x2="86" y2="542" stroke="red" stroke-width="8" opacity="0"></line><line x1="64" y1="555" x2="86" y2="542" stroke="#000000" stroke-width="2" stroke-dasharray="8,6" stroke-linecap="butt"></line><polygon points="96 537, 70 542, 84 544, 87 551, 96 537" stroke-linejoin="round" fill="#000000" stroke="#000000" stroke-width="1"></polygon></g></g><g id="1cec9660-6541-4608-bd49-b29c53a9213a-f4b21821-0f1b-4cc9-bdad-5253a014e60f"><g cursor="cell"><line x1="0" y1="296" x2="144" y2="305" stroke="red" stroke-width="8" opacity="0"></line><line x1="0" y1="296" x2="144" y2="305" stroke="#000000" stroke-width="2" stroke-linecap="round"></line></g></g><g id="f02ac70c-db52-4bec-8b13-64124b52ff8e-0a11bd6d-bf6c-4d31-9c2e-40eb2ccf3d27"><g cursor="cell"><line x1="-287" y1="751" x2="-273" y2="628" stroke="red" stroke-width="8" opacity="0"></line><line x1="-287" y1="751" x2="-273" y2="628" stroke="#000000" stroke-width="2" stroke-dasharray="8,6" stroke-linecap="butt"></line><polygon points="-288 759, -275 745, -287 748, -298 744, -288 759" stroke-linejoin="round" fill="#000000" stroke="#000000" stroke-width="1"></polygon><polygon points="-272 620, -285 634, -273 630, -262 634, -272 620" stroke-linejoin="round" fill="#000000" stroke="#000000" stroke-width="1"></polygon></g></g><g id="81143ea8-eced-4afb-9b2c-c741b1a69911-6006a8ee-538c-422a-a3ef-c7eb28716cb3"><g cursor="cell"><line x1="224" y1="537" x2="256" y2="555" stroke="red" stroke-width="8" opacity="0"></line><line x1="224" y1="537" x2="256" y2="555" stroke="#000000" stroke-width="2" stroke-dasharray="8,6" stroke-linecap="butt"></line></g></g><g id="6cc70ccb-c035-4c09-ab4f-dffee6e73cb4-fafca515-8e57-4d29-bcab-f27a97f844ed"><g cursor="cell"><line x1="-48" y1="139" x2="-112" y2="139" stroke="red" stroke-width="8" opacity="0"></line><line x1="-48" y1="139" x2="-112" y2="139" stroke="#000000" stroke-width="2" stroke-linecap="round"></line></g></g><g id="759aaf9b-c0f2-4ec7-b8ce-286bfd91f5a3-c51c5aaa-092f-4808-a280-9c5c20f370e1"><g cursor="cell"><line x1="-400" y1="657" x2="-320" y2="648" stroke="red" stroke-width="8" opacity="0"></line><line x1="-400" y1="657" x2="-320" y2="648" stroke="#000000" stroke-width="2" stroke-linecap="round"></line></g></g><g id="c51c5aaa-092f-4808-a280-9c5c20f370e1-9a711057-780e-467e-98e6-ad467eafad04"><g cursor="cell"><line x1="-320" y1="648" x2="-288" y2="611" stroke="red" stroke-width="8" opacity="0"></line><line x1="-320" y1="648" x2="-288" y2="611" stroke="#000000" stroke-width="2" stroke-linecap="round"></line></g></g><g id="ec3abf54-0e60-433a-935e-8e85a75222a2-0da439d3-ef50-4751-8e02-0398382f54d9"><g cursor="cell"><line x1="-192" y1="407" x2="-170" y2="394" stroke="red" stroke-width="8" opacity="0"></line><line x1="-192" y1="407" x2="-170" y2="394" stroke="#000000" stroke-width="2" stroke-linecap="round"></line><polygon points="-160 389, -186 394, -172 396, -169 403, -160 389" stroke-linejoin="round" fill="#000000" stroke="#000000" stroke-width="1"></polygon></g></g><g id="f2b099c7-8e95-4103-992c-34d82763f06c-ec3abf54-0e60-433a-935e-8e85a75222a2"><g cursor="cell"><line x1="-80" y1="472" x2="-192" y2="407" stroke="red" stroke-width="8" opacity="0"></line><line x1="-80" y1="472" x2="-192" y2="407" stroke="#000000" stroke-width="2" stroke-linecap="round"></line></g></g><g id="b3e29c5c-75fc-4b92-a4ed-381334a9c442-6cc70ccb-c035-4c09-ab4f-dffee6e73cb4"><g cursor="cell"><line x1="128" y1="241" x2="-48" y2="139" stroke="red" stroke-width="8" opacity="0"></line><line x1="128" y1="241" x2="-48" y2="139" stroke="#000000" stroke-width="2" stroke-linecap="round"></line></g></g><g id="cd61bed1-068e-4dc5-8580-1883a735c3e1-8581798e-16a5-4f0d-8f32-39a573dde414"><g cursor="cell"><line x1="-624" y1="435" x2="-624" y2="527" stroke="red" stroke-width="8" opacity="0"></line><line x1="-624" y1="435" x2="-624" y2="527" stroke="#000000" stroke-width="2" stroke-linecap="round"></line></g></g></g><g pointer-events="auto"><g opacity="1"><g id="b3e29c5c-75fc-4b92-a4ed-381334a9c442" transform="translate(0 0)"><g><polygon points="224 93, 352 167, 256 222, 128 148" fill="#fff"></polygon><polygon points="128 296, 256 370, 256 222, 128 148" fill="#e6e6e6" stroke="#999"></polygon><polygon points="256 370, 352 315, 352 167, 256 222" fill="#ccc" stroke="#999"></polygon><polygon points="224 93, 128 148, 128 296, 256 370, 352 315, 352 167" fill="none" stroke="#000000" stroke-width="2"></polygon></g></g></g><g opacity="1"><g id="433b4eb7-ca7b-4a9b-830f-0bab161026cf" transform="translate(0 0)"><svg x="269" y="416" height="115.695" width="100.625" viewBox="0 0 26.624 30.611"><path d="M13.312.306v15l12.99-7.5z" fill="#4286c5" fill-rule="evenodd"></path><path d="m.322 7.806 12.99 7.5v-15z" fill="#26527b" fill-rule="evenodd"></path><path d="M13.312.306v15" fill="none" stroke="#020406" stroke-width=".265"></path><path d="m13.312 15.306 12.99-7.5-6.495 18.75-6.495 3.75z" fill="#26527b" fill-rule="evenodd"></path><path d="m.322 7.806 12.99 7.5v15l-6.495-3.75z" fill="#326ca2" fill-rule="evenodd"></path><path d="m.322 7.806 12.99 7.5 12.99-7.5-12.99 7.5v15" fill="none" stroke="#0e1e2d" stroke-width=".265"></path><path d="m13.312.306-12.99 7.5 6.495 18.75 6.495 3.75 6.495-3.75 6.495-18.75z" fill="none" stroke="#000000" stroke-width=".529"></path></svg></g></g><g opacity="1"><g id="1cec9660-6541-4608-bd49-b29c53a9213a" transform="translate(0 0)"><g><polygon points="-128 222, 0 296, -64 333, -192 259" fill="#fff"></polygon><polygon points="-192 333, -64 407, -64 333, -192 259" fill="#e6e6e6" stroke="#999"></polygon><polygon points="-64 407, 0 370, 0 296, -64 333" fill="#ccc" stroke="#999"></polygon><polygon points="-128 222, -192 259, -192 333, -64 407, 0 370, 0 296" fill="none" stroke="#000000" stroke-width="2"></polygon></g></g></g><g opacity="1"><g id="81143ea8-eced-4afb-9b2c-c741b1a69911" transform="translate(0 0)"><g><polygon points="128 370, 256 444, 192 481, 64 407" fill="#fff"></polygon><polygon points="64 481, 192 555, 192 481, 64 407" fill="#e6e6e6" stroke="#999"></polygon><polygon points="192 555, 256 518, 256 444, 192 481" fill="#ccc" stroke="#999"></polygon><polygon points="128 370, 64 407, 64 481, 192 555, 256 518, 256 444" fill="none" stroke="#000000" stroke-width="2"></polygon></g></g></g><g opacity="1"><g id="7ceeb8b6-2574-4b3c-9570-b6067e3c5b43" transform="translate(0 0)"><g><polygon points="-384 407, -320 444, -384 481, -448 444" fill="#607d8b"></polygon><polygon points="-448 481, -384 518, -384 481, -448 444" fill="#4b626d" stroke="#0d1012"></polygon><polygon points="-384 518, -320 481, -320 444, -384 481" fill="#36474f" stroke="#0d1012"></polygon><polygon points="-384 407, -448 444, -448 481, -384 518, -320 481, -320 444" fill="none" stroke="#000000" stroke-width="2"></polygon></g></g></g><g opacity="1"><g id="aa54ff55-1d99-4d21-aad3-22737d28d01c" transform="translate(0 0)"><g><polygon points="-224 463, -160 500, -224 537, -288 500" fill="#fff"></polygon><polygon points="-288 574, -224 611, -224 537, -288 500" fill="#e6e6e6" stroke="#999"></polygon><polygon points="-224 611, -160 574, -160 500, -224 537" fill="#ccc" stroke="#999"></polygon><polygon points="-224 463, -288 500, -288 574, -224 611, -160 574, -160 500" fill="none" stroke="#000000" stroke-width="2"></polygon></g></g></g><g opacity="1"><g id="7e3f1528-1e24-422d-99fc-14ef9097af53" transform="translate(0 0)"><g><polygon points="-64 592, 0 629, -64 666, -128 629" fill="#607d8b"></polygon><polygon points="-128 666, -64 703, -64 666, -128 629" fill="#4b626d" stroke="#0d1012"></polygon><polygon points="-64 703, 0 666, 0 629, -64 666" fill="#36474f" stroke="#0d1012"></polygon><polygon points="-64 592, -128 629, -128 666, -64 703, 0 666, 0 629" fill="none" stroke="#000000" stroke-width="2"></polygon></g></g></g><g opacity="1"><g id="1d789f22-5dff-482b-99e3-0be91fa1cdfd" transform="translate(0 0)"><g><polygon points="-640 555, -512 629, -576 666, -704 592" fill="#607d8b"></polygon><polygon points="-704 629, -576 703, -576 666, -704 592" fill="#4b626d" stroke="#0d1012"></polygon><polygon points="-576 703, -512 666, -512 629, -576 666" fill="#36474f" stroke="#0d1012"></polygon><polygon points="-640 555, -704 592, -704 629, -576 703, -512 666, -512 629" fill="none" stroke="#000000" stroke-width="2"></polygon></g></g></g><g opacity="1"><g id="f02ac70c-db52-4bec-8b13-64124b52ff8e" transform="translate(0 0)"><g><polygon points="-352 722, -288 759, -352 796, -416 759" fill="#607d8b"></polygon><polygon points="-416 796, -352 833, -352 796, -416 759" fill="#4b626d" stroke="#0d1012"></polygon><polygon points="-352 833, -288 796, -288 759, -352 796" fill="#36474f" stroke="#0d1012"></polygon><polygon points="-352 722, -416 759, -416 796, -352 833, -288 796, -288 759" fill="none" stroke="#000000" stroke-width="2"></polygon></g></g></g><g opacity="1"><g id="bee575b7-666c-46c0-bf50-44b13541123d" transform="translate(0 0)"><g><polygon points="-352 740, -288 777, -352 814, -416 777" fill="#607d8b"></polygon><polygon points="-416 814, -352 851, -352 814, -416 777" fill="#4b626d" stroke="#0d1012"></polygon><polygon points="-352 851, -288 814, -288 777, -352 814" fill="#36474f" stroke="#0d1012"></polygon><polygon points="-352 740, -416 777, -416 814, -352 851, -288 814, -288 777" fill="none" stroke="#000000" stroke-width="2"></polygon></g></g></g><g opacity="1"><g id="c0501c8b-ea67-42c1-b2d1-475bf4cb1971" transform="translate(0 0)"><g><polygon points="-352 759, -288 796, -352 833, -416 796" fill="#607d8b"></polygon><polygon points="-416 833, -352 870, -352 833, -416 796" fill="#4b626d" stroke="#0d1012"></polygon><polygon points="-352 870, -288 833, -288 796, -352 833" fill="#36474f" stroke="#0d1012"></polygon><polygon points="-352 759, -416 796, -416 833, -352 870, -288 833, -288 796" fill="none" stroke="#000000" stroke-width="2"></polygon></g></g></g></g><g pointer-events="auto"></g><g pointer-events="auto"><g opacity="1"><g id="58c89057-7f36-41a2-8bbe-bd9697872422" transform="translate(0 0)"><svg x="160" y="426" overflow="visible"><g transform="scale(1.118033988749895) matrix(0.707 0.409 -0.707 0.409 0 0)"><circle cx="0" cy="0" fill="#000000" r="23"></circle><svg width="27" height="32" x="-13.5" y="-16" style="fill: rgb(255, 255, 255);"><svg xmlns="http://www.w3.org/2000/svg" width="27" height="32" viewBox="0 0 27 32"><path d="M13.714 13.714c5.375 0 10.768-.964 13.714-3.036v3.036c0 2.518-6.143 4.571-13.714 4.571S0 16.231 0 13.714v-3.036c2.946 2.071 8.339 3.036 13.714 3.036zm0 13.715c5.375 0 10.768-.964 13.714-3.036v3.036c0 2.518-6.143 4.571-13.714 4.571S0 29.946 0 27.429v-3.036c2.946 2.071 8.339 3.036 13.714 3.036zm0-6.858c5.375 0 10.768-.964 13.714-3.036v3.036c0 2.518-6.143 4.571-13.714 4.571S0 23.088 0 20.571v-3.036c2.946 2.071 8.339 3.036 13.714 3.036zm0-20.571c7.571 0 13.714 2.054 13.714 4.571v2.286c0 2.518-6.143 4.571-13.714 4.571S0 9.374 0 6.857V4.571C0 2.053 6.143 0 13.714 0z"></path></svg></svg></g></svg></g></g><g opacity="1"><g id="fda4aaa0-3dea-4556-b732-d7035e1060b1" transform="translate(0 0)"><svg x="-96" y="278" overflow="visible"><g transform="scale(1.118033988749895) matrix(0.707 0.409 -0.707 0.409 0 0)"><circle cx="0" cy="0" fill="#000000" r="23"></circle><svg width="27" height="32" x="-13.5" y="-16" style="fill: rgb(255, 255, 255);"><svg xmlns="http://www.w3.org/2000/svg" width="27" height="32" viewBox="0 0 27 32"><path d="M27.429 16c0 7.554-6.161 13.714-13.714 13.714a13.688 13.688 0 0 1-10.554-4.946.593.593 0 0 1 .036-.768l2.446-2.464a.687.687 0 0 1 .446-.161.584.584 0 0 1 .411.214 9.04 9.04 0 0 0 7.214 3.554c5.036 0 9.143-4.107 9.143-9.143s-4.107-9.143-9.143-9.143A9.094 9.094 0 0 0 7.5 9.303l2.446 2.464a1.1 1.1 0 0 1 .25 1.232 1.144 1.144 0 0 1-1.054.714h-8A1.151 1.151 0 0 1-.001 12.57v-8c0-.464.286-.875.714-1.054a1.1 1.1 0 0 1 1.232.25L4.266 6.07c2.518-2.375 5.929-3.786 9.446-3.786 7.554 0 13.714 6.161 13.714 13.714z"></path></svg></svg></g></svg></g></g><g opacity="1"><g id="48f4a32e-7a9f-43c1-b019-ed4457d265dc" transform="translate(0 0)"><svg x="-224" y="500" overflow="visible"><g transform="scale(1.118033988749895) matrix(0.707 0.409 -0.707 0.409 0 0)"><circle cx="0" cy="0" fill="#000000" r="24"></circle><svg width="34" height="32" x="-17" y="-16" style="fill: rgb(255, 255, 255);"><svg xmlns="http://www.w3.org/2000/svg" width="34" height="32" viewBox="0 0 34 32"><path d="M16 16c0-2.518-2.054-4.571-4.571-4.571S6.858 13.483 6.858 16s2.054 4.571 4.571 4.571S16 18.517 16 16zm13.714 9.143c0-1.25-1.036-2.286-2.286-2.286s-2.286 1.036-2.286 2.286a2.29 2.29 0 0 0 2.286 2.286 2.29 2.29 0 0 0 2.286-2.286zm0-18.286c0-1.25-1.036-2.286-2.286-2.286s-2.286 1.036-2.286 2.286a2.29 2.29 0 0 0 2.286 2.286 2.29 2.29 0 0 0 2.286-2.286zm-6.857 7.518v3.304c0 .232-.179.5-.411.536l-2.768.429a8.133 8.133 0 0 1-.571 1.357c.5.714 1.036 1.375 1.607 2.054a.619.619 0 0 1 .125.357c0 .125-.036.25-.125.339-.357.482-2.357 2.661-2.875 2.661a.676.676 0 0 1-.375-.125L15.41 23.68a7.648 7.648 0 0 1-1.375.554c-.089.911-.179 1.893-.411 2.768a.57.57 0 0 1-.536.429H9.767c-.25 0-.5-.196-.536-.446l-.411-2.732a8.732 8.732 0 0 1-1.339-.554l-2.107 1.589a.515.515 0 0 1-.357.125.577.577 0 0 1-.375-.143c-.464-.429-2.571-2.339-2.571-2.857a.61.61 0 0 1 .125-.339c.518-.679 1.054-1.339 1.571-2.036a9.515 9.515 0 0 1-.625-1.464l-2.714-.429a.52.52 0 0 1-.429-.518v-3.304c0-.232.179-.5.411-.536l2.768-.429c.143-.464.339-.911.571-1.357a29.272 29.272 0 0 0-1.607-2.054c-.071-.107-.125-.232-.125-.357s.036-.25.125-.357c.357-.482 2.357-2.643 2.875-2.643.143 0 .268.054.375.125l2.054 1.607a9.216 9.216 0 0 1 1.375-.571c.089-.893.179-1.875.411-2.75a.57.57 0 0 1 .536-.429h3.321c.25 0 .5.196.536.446l.411 2.732c.464.143.911.339 1.339.554l2.107-1.589a.547.547 0 0 1 .357-.125c.143 0 .268.054.375.143.464.429 2.571 2.357 2.571 2.857a.61.61 0 0 1-.125.339c-.518.696-1.054 1.339-1.554 2.036.232.482.446.964.607 1.464l2.714.411c.25.054.429.286.429.536zm11.429 9.518v2.5c0 .268-2.304.518-2.661.554a4.332 4.332 0 0 1-.536.929c.161.357.911 2.143.911 2.464 0 .054-.018.089-.071.125-.214.125-2.125 1.268-2.214 1.268-.232 0-1.571-1.786-1.75-2.054-.179.018-.357.036-.536.036s-.357-.018-.536-.036c-.179.268-1.518 2.054-1.75 2.054-.089 0-2-1.143-2.214-1.268a.153.153 0 0 1-.071-.125c0-.304.75-2.107.911-2.464a4.35 4.35 0 0 1-.536-.929c-.357-.036-2.661-.286-2.661-.554v-2.5c0-.268 2.304-.518 2.661-.554.143-.321.321-.643.536-.929-.161-.357-.911-2.161-.911-2.464 0-.036.018-.089.071-.125.214-.107 2.125-1.25 2.214-1.25.232 0 1.571 1.768 1.75 2.036.179-.018.357-.036.536-.036s.357.018.536.036c.5-.696 1.036-1.393 1.643-2l.107-.036c.089 0 2 1.125 2.214 1.25a.153.153 0 0 1 .071.125c0 .321-.75 2.107-.911 2.464.214.286.393.607.536.929.357.036 2.661.286 2.661.554zm0-18.286v2.5c0 .268-2.304.518-2.661.554a4.332 4.332 0 0 1-.536.929c.161.357.911 2.143.911 2.464 0 .054-.018.089-.071.125-.214.125-2.125 1.268-2.214 1.268-.232 0-1.571-1.786-1.75-2.054-.179.018-.357.036-.536.036s-.357-.018-.536-.036c-.179.268-1.518 2.054-1.75 2.054-.089 0-2-1.143-2.214-1.268a.153.153 0 0 1-.071-.125c0-.304.75-2.107.911-2.464a4.35 4.35 0 0 1-.536-.929c-.357-.036-2.661-.286-2.661-.554v-2.5c0-.268 2.304-.518 2.661-.554.143-.321.321-.643.536-.929-.161-.357-.911-2.161-.911-2.464 0-.036.018-.089.071-.125.214-.107 2.125-1.25 2.214-1.25.232 0 1.571 1.768 1.75 2.036.179-.018.357-.036.536-.036s.357.018.536.036c.5-.696 1.036-1.393 1.643-2l.107-.036c.089 0 2 1.125 2.214 1.25A.153.153 0 0 1 32 1.66c0 .321-.75 2.107-.911 2.464.214.286.393.607.536.929.357.036 2.661.286 2.661.554z"></path></svg></svg></g></svg></g></g><g opacity="1"><g id="20f962e4-9253-452f-bcb3-7fd6e4c3d1d4" transform="translate(0 0)"><svg x="240" y="157" overflow="visible"><g transform="scale(1.118033988749895) matrix(0.707 0.409 -0.707 0.409 0 0)"><circle cx="0" cy="0" fill="#000000" r="26.5"></circle><svg width="39" height="32" x="-19.5" y="-16" style="fill: rgb(255, 255, 255);"><svg xmlns="http://www.w3.org/2000/svg" width="39" height="32" viewBox="0 0 39 32"><path d="m11.429 29.143 6.857-3.429v-5.607l-6.857 2.929v6.107zm-1.143-8.107 7.214-3.089-7.214-3.089-7.214 3.089zm19.428 8.107 6.857-3.429v-5.607l-6.857 2.929v6.107zm-1.143-8.107 7.214-3.089-7.214-3.089-7.214 3.089zm-8-5.232 6.857-2.946v-4.75l-6.857 2.929v4.768zm-1.142-6.768 7.875-3.375-7.875-3.375-7.875 3.375zm19.428 9.25v7.429c0 .857-.482 1.661-1.268 2.036l-8 4c-.321.179-.661.25-1.018.25s-.696-.071-1.018-.25l-8-4a.295.295 0 0 1-.125-.071.276.276 0 0 1-.125.071l-8 4c-.321.179-.661.25-1.018.25s-.696-.071-1.018-.25l-8-4a2.253 2.253 0 0 1-1.268-2.036v-7.429c0-.911.554-1.732 1.393-2.107l7.75-3.321V5.715c0-.911.554-1.732 1.393-2.107l8-3.429c.286-.125.589-.179.893-.179s.607.054.893.179l8 3.429c.839.375 1.393 1.196 1.393 2.107v7.143l7.75 3.321a2.294 2.294 0 0 1 1.393 2.107z"></path></svg></svg></g></svg></g></g></g><g pointer-events="auto"><g opacity="1"><g id="bd520707-67ff-4057-ab62-41de0f428b80"><svg x="128" y="296" overflow="visible"><text stroke="#ffffff" stroke-width="4" font-family="Open Sans" y="36.5" font-size="25pt" fill="#000000" font-weight="bold" transform="matrix(0.707 0.409 -0.707 0.409 0 0)" xml:space="preserve"><tspan x="8" dy="0">Manager</tspan></text><text font-family="Open Sans" y="36.5" font-size="25pt" fill="#000000" font-weight="bold" transform="matrix(0.707 0.409 -0.707 0.409 0 0)" xml:space="preserve"><tspan x="8" dy="0">Manager</tspan></text></svg></g></g><g opacity="1"><g id="fab087e9-2f7d-431b-8623-6422a1345225" transform="translate(0 0)"><svg x="-192" y="333" overflow="visible"><text stroke="#ffffff" stroke-width="4" font-family="Open Sans" y="36.5" font-size="25pt" fill="#000000" font-weight="bold" transform="matrix(0.707 0.409 -0.707 0.409 0 0)" xml:space="preserve"><tspan x="8" dy="0">Scheduler</tspan></text><text font-family="Open Sans" y="36.5" font-size="25pt" fill="#000000" font-weight="bold" transform="matrix(0.707 0.409 -0.707 0.409 0 0)" xml:space="preserve"><tspan x="8" dy="0">Scheduler</tspan></text></svg></g></g><g opacity="1"><g id="132fbe3e-650d-4662-ae5a-da6b27cfcbb7" transform="translate(0 0)"><svg x="96" y="500" overflow="visible"><text stroke="#ffffff" stroke-width="4" font-family="Open Sans" y="36.5" font-size="25pt" fill="#000000" font-weight="bold" transform="matrix(0.707 0.409 -0.707 0.409 0 0)" xml:space="preserve"><tspan x="8" dy="0">CDN</tspan></text><text font-family="Open Sans" y="36.5" font-size="25pt" fill="#000000" font-weight="bold" transform="matrix(0.707 0.409 -0.707 0.409 0 0)" xml:space="preserve"><tspan x="8" dy="0">CDN</tspan></text></svg></g></g><g opacity="1"><g id="91181709-47b2-4a62-9be1-5faf5aafb707" transform="translate(0 0)"><svg x="-368" y="361" overflow="visible"><text stroke="#ffffff" stroke-width="4" font-family="Open Sans" y="36.5" font-size="25pt" fill="#000000" font-weight="bold" transform="matrix(0.707 0.409 -0.707 0.409 0 0)" xml:space="preserve"><tspan x="8" dy="0">Peer</tspan></text><text font-family="Open Sans" y="36.5" font-size="25pt" fill="#000000" font-weight="bold" transform="matrix(0.707 0.409 -0.707 0.409 0 0)" xml:space="preserve"><tspan x="8" dy="0">Peer</tspan></text></svg></g></g><g opacity="1"><g id="14fcb47c-fd30-4d1c-9798-6fddca139567" transform="translate(0 0)"><svg x="-288" y="574" overflow="visible"><text stroke="#ffffff" stroke-width="4" font-family="Open Sans" y="26.24" font-size="16pt" fill="#000000" font-weight="bold" transform="matrix(0.707 0.409 -0.707 0.409 0 0)" xml:space="preserve"><tspan x="8" dy="0">Daemon</tspan></text><text font-family="Open Sans" y="26.24" font-size="16pt" fill="#000000" font-weight="bold" transform="matrix(0.707 0.409 -0.707 0.409 0 0)" xml:space="preserve"><tspan x="8" dy="0">Daemon</tspan></text></svg></g></g><g opacity="1"><g id="c1385c7d-0bc9-421d-ba80-bc6dad73990a" transform="translate(0 0)"><svg x="-128" y="666" overflow="visible"><text stroke="#ffffff" stroke-width="4" font-family="Open Sans" y="26.24" font-size="16pt" fill="#000000" font-weight="bold" transform="matrix(0.707 0.409 -0.707 0.409 0 0)" xml:space="preserve"><tspan x="8" dy="0">Dfget</tspan></text><text font-family="Open Sans" y="26.24" font-size="16pt" fill="#000000" font-weight="bold" transform="matrix(0.707 0.409 -0.707 0.409 0 0)" xml:space="preserve"><tspan x="8" dy="0">Dfget</tspan></text></svg></g></g><g opacity="1"><g id="fa758f4f-ad68-4c4e-a3c6-90b1b8628a23" transform="translate(0 0)"><svg x="-432" y="490" overflow="visible"><text stroke="#ffffff" stroke-width="4" font-family="Open Sans" y="26.24" font-size="16pt" fill="#000000" font-weight="bold" transform="matrix(0.707 0.409 -0.707 0.409 0 0)" xml:space="preserve"><tspan x="8" dy="0">SDK</tspan></text><text font-family="Open Sans" y="26.24" font-size="16pt" fill="#000000" font-weight="bold" transform="matrix(0.707 0.409 -0.707 0.409 0 0)" xml:space="preserve"><tspan x="8" dy="0">SDK</tspan></text></svg></g></g><g opacity="1"><g id="11492c3d-9895-493c-b978-d3b039f96645" transform="translate(0 0)"><svg x="-432" y="823" overflow="visible"><text stroke="#ffffff" stroke-width="4" font-family="Open Sans" y="36.5" font-size="25pt" fill="#000000" font-weight="bold" transform="matrix(0.707 0.409 -0.707 0.409 0 0)" xml:space="preserve"><tspan x="8" dy="0">Peers</tspan></text><text font-family="Open Sans" y="36.5" font-size="25pt" fill="#000000" font-weight="bold" transform="matrix(0.707 0.409 -0.707 0.409 0 0)" xml:space="preserve"><tspan x="8" dy="0">Peers</tspan></text></svg></g></g><g opacity="1"><g id="a7bd0dd8-4375-4e30-8fe4-4015d87f87a8" transform="translate(0 0)"><svg x="-752" y="620" overflow="visible"><text stroke="#ffffff" stroke-width="4" font-family="Open Sans" y="36.5" font-size="25pt" fill="#000000" font-weight="bold" transform="matrix(0.707 0.409 -0.707 0.409 0 0)" xml:space="preserve"><tspan x="8" dy="0">Download Tools</tspan></text><text font-family="Open Sans" y="36.5" font-size="25pt" fill="#000000" font-weight="bold" transform="matrix(0.707 0.409 -0.707 0.409 0 0)" xml:space="preserve"><tspan x="8" dy="0">Download Tools</tspan></text></svg></g></g><g opacity="1"><g id="6602cb1f-0f80-4b33-95a8-1604965c84b9" transform="translate(0 0)"><svg x="-48" y="379" overflow="visible"><text stroke="#ffffff" stroke-width="4" font-family="Open Sans" y="21.68" font-size="12pt" fill="#309975" font-weight="bold" transform="matrix(0.707, 0.409, 0, 0.816, 0, 0)" xml:space="preserve"><tspan x="8" dy="0">Make piece seed</tspan></text><text font-family="Open Sans" y="21.68" font-size="12pt" fill="#309975" font-weight="bold" transform="matrix(0.707, 0.409, 0, 0.816, 0, 0)" xml:space="preserve"><tspan x="8" dy="0">Make piece seed</tspan></text></svg></g></g><g opacity="1"><g id="b0287396-2bd5-46d0-91d4-519f324a3116" transform="translate(0 0)"><svg x="240" y="509" overflow="visible"><text stroke="#ffffff" stroke-width="4" font-family="Open Sans" y="21.68" font-size="12pt" fill="#309975" font-weight="bold" transform="matrix(0.707, 0.409, 0, 0.816, 0, 0)" xml:space="preserve"><tspan x="8" dy="0">Download</tspan></text><text font-family="Open Sans" y="21.68" font-size="12pt" fill="#309975" font-weight="bold" transform="matrix(0.707, 0.409, 0, 0.816, 0, 0)" xml:space="preserve"><tspan x="8" dy="0">Download</tspan></text></svg></g></g><g opacity="1"><g id="7f021cb2-928f-4229-a8d2-e84eea5dc4dd" transform="translate(0 0)"><svg x="-64" y="481" overflow="visible"><text stroke="#ffffff" stroke-width="4" font-family="Open Sans" y="21.68" font-size="12pt" fill="#309975" font-weight="bold" transform="matrix(0.707, 0.409, 0, 0.816, 0, 0)" xml:space="preserve"><tspan x="8" dy="0">Download pieces</tspan></text><text font-family="Open Sans" y="21.68" font-size="12pt" fill="#309975" font-weight="bold" transform="matrix(0.707, 0.409, 0, 0.816, 0, 0)" xml:space="preserve"><tspan x="8" dy="0">Download pieces</tspan></text></svg></g></g><g opacity="1"><g id="a452bd11-4ecb-4725-99eb-f525a7b18618" transform="translate(0 0)"><svg x="-176" y="416" overflow="visible"><text stroke="#ffffff" stroke-width="4" font-family="Open Sans" y="21.68" font-size="12pt" fill="#309975" font-weight="bold" transform="matrix(0.707, 0.409, 0, 0.816, 0, 0)" xml:space="preserve"><tspan x="8" dy="0">Schedule</tspan></text><text font-family="Open Sans" y="21.68" font-size="12pt" fill="#309975" font-weight="bold" transform="matrix(0.707, 0.409, 0, 0.816, 0, 0)" xml:space="preserve"><tspan x="8" dy="0">Schedule</tspan></text></svg></g></g><g opacity="1"><g id="8d5c311a-f667-4f43-a92b-fb87f5c42758" transform="translate(0 0)"><svg x="-208" y="583" overflow="visible"><text stroke="#ffffff" stroke-width="4" font-family="Open Sans" y="21.68" font-size="12pt" fill="#309975" font-weight="bold" transform="matrix(0.707, 0.409, 0, 0.816, 0, 0)" xml:space="preserve"><tspan x="8" dy="0">Request</tspan><tspan x="8" dy="1.1em">Downloading</tspan></text><text font-family="Open Sans" y="21.68" font-size="12pt" fill="#309975" font-weight="bold" transform="matrix(0.707, 0.409, 0, 0.816, 0, 0)" xml:space="preserve"><tspan x="8" dy="0">Request</tspan><tspan x="8" dy="1.1em">Downloading</tspan></text></svg></g></g><g opacity="1"><g id="92e87d07-d969-413a-bc72-27b27a11afa0" transform="translate(0 0)"><svg x="-368" y="490" overflow="visible"><text stroke="#ffffff" stroke-width="4" font-family="Open Sans" y="21.68" font-size="12pt" fill="#309975" font-weight="bold" transform="matrix(0.707, 0.409, 0, 0.816, 0, 0)" xml:space="preserve"><tspan x="8" dy="0">Request</tspan><tspan x="8" dy="1.1em">Downloading</tspan></text><text font-family="Open Sans" y="21.68" font-size="12pt" fill="#309975" font-weight="bold" transform="matrix(0.707, 0.409, 0, 0.816, 0, 0)" xml:space="preserve"><tspan x="8" dy="0">Request</tspan><tspan x="8" dy="1.1em">Downloading</tspan></text></svg></g></g><g opacity="1"><g id="076c14fb-fa86-4236-813f-25d46947c6ec" transform="translate(0 0)"><svg x="-352" y="685" overflow="visible"><text stroke="#ffffff" stroke-width="4" font-family="Open Sans" y="21.68" font-size="12pt" fill="#309975" font-weight="bold" transform="matrix(0.707, 0.409, 0, 0.816, 0, 0)" xml:space="preserve"><tspan x="8" dy="0">Download pieces</tspan></text><text font-family="Open Sans" y="21.68" font-size="12pt" fill="#309975" font-weight="bold" transform="matrix(0.707, 0.409, 0, 0.816, 0, 0)" xml:space="preserve"><tspan x="8" dy="0">Download pieces</tspan></text></svg></g></g><g opacity="1"><g id="1bb7330a-102d-433a-acd2-6a3351f3ddd5" transform="translate(0 0)"><svg x="-560" y="564" overflow="visible"><text stroke="#ffffff" stroke-width="4" font-family="Open Sans" y="21.68" font-size="12pt" fill="#309975" font-weight="bold" transform="matrix(0.707, 0.409, 0, 0.816, 0, 0)" xml:space="preserve"><tspan x="8" dy="0">Proxy downloading</tspan></text><text font-family="Open Sans" y="21.68" font-size="12pt" fill="#309975" font-weight="bold" transform="matrix(0.707, 0.409, 0, 0.816, 0, 0)" xml:space="preserve"><tspan x="8" dy="0">Proxy downloading</tspan></text></svg></g></g></g><g pointer-events="auto"><g></g><g></g><g></g><g></g><g></g><g></g><g></g><g></g><g></g><g></g></g></g></svg>